<?xml version="1.0" ?><svg height="64" viewBox="0 0 64 64" width="64" xmlns="http://www.w3.org/2000/svg"><defs><style>.cls-1{fill:none;stroke:#000;stroke-linejoin:round;stroke-width:2px;}</style></defs><title/><g data-name="9-Shipping" id="_9-Shipping"><path class="cls-1" d="M63,44V5a4,4,0,0,0-4-4H5A4,4,0,0,0,1,5V59a4,4,0,0,0,4,4H20"/><rect class="cls-1" height="22" width="18" x="23" y="1"/><line class="cls-1" x1="23" x2="41" y1="18" y2="18"/><line class="cls-1" x1="1" x2="23" y1="7" y2="7"/><line class="cls-1" x1="63" x2="41" y1="7" y2="7"/><polyline class="cls-1" points="47 41 55 41 63 49 63 59 59 59"/><circle class="cls-1" cx="55" cy="59" r="4"/><circle class="cls-1" cx="27" cy="59" r="4"/><line class="cls-1" x1="51" x2="31" y1="59" y2="59"/><line class="cls-1" x1="26" x2="28" y1="59" y2="59"/><line class="cls-1" x1="54" x2="56" y1="59" y2="59"/><line class="cls-1" x1="47" x2="33" y1="55" y2="55"/><path class="cls-1" d="M47,46s1,3,3,3H63"/><line class="cls-1" x1="19" x2="47" y1="51" y2="51"/><path class="cls-1" d="M47,59V35H38V33a1,1,0,0,0-1-1H29a1,1,0,0,0-1,1v2H19V59h4"/><line class="cls-1" x1="28" x2="35" y1="35" y2="35"/><polyline class="cls-1" points="9 11 5 11 5 15"/><polyline class="cls-1" points="59 15 59 11 55 11"/><line class="cls-1" x1="16" x2="8" y1="55" y2="55"/><line class="cls-1" x1="12" x2="6" y1="50" y2="50"/><line class="cls-1" x1="16" x2="12" y1="45" y2="45"/><line class="cls-1" x1="16" x2="14" y1="50" y2="50"/><line class="cls-1" x1="10" x2="8" y1="45" y2="45"/><circle class="cls-1" cx="33" cy="43" r="4"/><line class="cls-1" x1="30" x2="36" y1="46" y2="40"/></g></svg>